<?xml version="1.0" standalone="no"?>
<!DOCTYPE svg PUBLIC "-//W3C//DTD SVG 20010904//EN"
 "http://www.w3.org/TR/2001/REC-SVG-20010904/DTD/svg10.dtd">
<svg version="1.0" xmlns="http://www.w3.org/2000/svg"
 width="593.000000pt" height="593.000000pt" viewBox="0 0 593.000000 593.000000"
 preserveAspectRatio="xMidYMid meet">
<metadata>
Created by potrace 1.11, written by Peter Selinger 2001-2013
</metadata>
<g transform="translate(0.000000,593.000000) scale(0.100000,-0.100000)"
fill="#000000" stroke="none">
<path d="M2871 5880 c-46 -27 -85 -50 -86 -50 -1 0 -101 -57 -221 -126 -121
-70 -291 -168 -379 -219 -88 -51 -270 -156 -404 -234 -134 -77 -248 -141 -252
-141 -4 0 -9 -3 -11 -7 -1 -5 -16 -15 -33 -24 -16 -9 -174 -99 -350 -201 -459
-265 -585 -338 -625 -361 -19 -10 -54 -30 -77 -44 l-43 -25 0 -743 0 -743 117
-69 c65 -37 125 -72 134 -78 10 -5 30 -17 46 -26 15 -9 44 -25 63 -36 19 -11
85 -49 145 -84 61 -35 123 -70 138 -78 15 -8 24 -18 20 -22 -6 -5 -340 -199
-503 -292 -19 -10 -63 -36 -97 -55 l-63 -36 0 -356 1 -355 121 -70 c67 -38
145 -83 172 -98 28 -16 80 -46 116 -66 36 -21 301 -175 590 -341 289 -166 566
-326 615 -355 123 -72 589 -342 645 -373 25 -14 86 -48 135 -77 135 -79 165
-95 176 -95 6 0 142 76 303 169 160 93 307 178 326 188 19 11 78 45 130 75 52
30 214 124 360 208 146 84 324 186 395 228 72 41 144 84 160 96 17 11 30 19
30 17 0 -3 11 2 25 11 72 44 131 78 136 78 3 0 18 8 32 19 15 10 47 29 73 43
25 14 153 88 285 164 131 76 256 147 276 158 l38 21 0 743 c0 408 -2 742 -4
742 -2 0 -102 -57 -222 -126 -458 -264 -762 -440 -839 -484 -81 -47 -520 -300
-585 -338 -19 -11 -134 -77 -255 -147 -121 -70 -238 -138 -260 -150 -22 -13
-122 -70 -223 -128 l-182 -106 -123 71 c-67 39 -138 80 -157 91 -19 11 -60 33
-90 50 -30 16 -62 36 -71 43 -8 8 -18 14 -21 14 -3 0 -51 26 -107 59 l-102 59
38 22 c21 13 68 40 105 61 37 21 82 47 100 58 39 22 303 175 433 251 50 29
110 63 135 77 25 14 117 67 205 118 344 200 542 314 590 340 28 15 61 36 75
45 14 9 39 24 55 32 17 9 100 56 185 106 85 49 258 149 384 221 126 73 288
167 360 208 72 42 230 134 351 203 l220 127 0 358 0 357 -45 25 c-25 14 -103
59 -175 101 -164 95 -170 98 -288 166 l-99 56 -66 -39 c-37 -21 -83 -48 -102
-59 -19 -10 -177 -101 -350 -202 -173 -100 -394 -227 -490 -283 -96 -55 -208
-120 -248 -144 -40 -23 -75 -43 -78 -43 -2 0 -21 -11 -42 -24 -30 -18 -254
-149 -407 -236 -16 -9 -75 -43 -130 -75 -228 -132 -483 -279 -525 -303 -25
-14 -63 -36 -84 -50 l-39 -24 -41 20 c-23 12 -63 35 -91 52 -27 16 -57 33 -65
37 -15 7 -336 193 -433 250 l-47 29 52 30 c29 17 161 93 293 169 132 76 253
146 268 154 16 9 36 21 45 26 9 6 60 35 112 64 52 30 154 89 225 131 72 42
137 79 145 83 8 4 29 15 45 26 31 19 516 299 740 427 72 41 137 79 145 84 8 5
115 66 237 137 231 133 259 151 252 156 -2 2 -105 62 -227 133 -241 139 -240
138 -352 202 -41 23 -82 47 -90 52 -44 27 -153 90 -156 90 -2 0 -27 14 -56 31
-29 18 -69 41 -88 52 -19 10 -92 53 -162 93 -70 41 -133 76 -140 79 -7 3 -51
-17 -97 -45z"/>
</g>
</svg>
